<?xml version="1.0" encoding="UTF-8"?>
<svg id="Layer_1" data-name="Layer 1" xmlns="http://www.w3.org/2000/svg" viewBox="0 0 500 500">
  <defs>
    <style>
      .cls-1 {
        fill: #164f78;
      }
    </style>
  </defs>
  <path class="cls-1" d="M374.3,396.98c-71,67.09-176.79,67.75-247.94,1.08-28.14,3.4-53.96-9.22-66.62-33.7-12.36-23.9-8.35-52.81,10.86-73.61-11.68-81.99,32.34-160.54,109.18-192.23,12.5-28.09,38.87-45.97,68.59-46.21,30.1-.24,57.54,16.59,70.39,45.72,76.35,31.1,120.88,108.79,109.94,191.46,18.11,19.87,24.32,47.55,12.78,72.14-11.19,23.84-36.54,40.69-67.18,35.35ZM254.8,150.47l.86,23.66,11.69-32.59,16.7,5.23c7.45,2.33,12.82,10.31,15.28,17.24,18.59-27.08,15.17-62.19-8.51-83.37s-57.86-21.02-81.26-1.03c-23.55,20.12-29.44,55.27-10.6,81.91,2-2.83,6.44-10.36,9.74-11.62l22.72-8.7,11.15,29.82c4.67-7.37-1.12-27.02,7.54-26.04,1.66.19,4.63,3.79,4.7,5.49ZM101.23,270.4c-2.22-56.42,25.95-105.04,72.29-133.36,1.77-3.15,1.38-10-.39-14.11-55.8,30.17-89.15,89.56-84.38,153.18,4.82.14,9.23-1.59,12.47-5.72ZM398.32,272.41c4.42,1.78,8.52,2.94,12.05,3.44,4.36-63.96-28.21-123.26-84.47-152.52-1.7,3.81-2.22,10.62-.45,13.62,47.57,28.48,75.1,78.43,72.87,135.45ZM178.77,335.46c-2.31,14.79-6.22,26.07-12.84,37.8,50.17,40.49,119.98,39.95,168.1-.88-7.61-11.57-11.2-23.54-11.91-37.14-22.37-.24-43.84-1.36-65.38-10.31-2.13-13.18-2.2-30.44,9.79-39.19,7.13-5.2,20.62-9.98,28.87-12.35,12.9,3.78,22.57,4.72,35.28-.17l21.13,6.58c11.37-4.24,21.56-7.07,33.55-9.08,3.48-48.93-21.86-96.17-64.3-121.04-12.11,32.75-40.65,51.96-72.88,51.33-31.58-.61-59.19-19.71-70.02-51.97-42.4,25.82-67.2,72.29-64.45,121.39,33.3,2.2,33.47,24.16,58.55.47l-20.91-9.31c12.83-23.63.48-60.9,33.79-62.26,14.88-.61,29.14,8.9,30.14,25.92.77,13.06,3.67,23.35,8.33,36.86l-21.26,8.24c9.16,15.55,34.08,4.93,38.79,36.99.77,5.25.88,13.62-1.25,18.78-18.85,6.79-40.55,8.79-61.11,9.35ZM115.25,350.46c15.44-4.95,32.6,2.16,37.71,18.14,18.78-20.08,16.29-51.63-2.7-69.83-19.52-18.72-48.93-19.25-68.94-1.08-19.1,17.33-22.84,47.43-4.78,69.35,7.22-14.89,23.12-20.29,38.7-16.58ZM403.65,308.48l4.91,29.18-11.62,6.98c13.77,12.03,15.75,3.13,26.08,22.7,18.6-21.5,15.06-52.86-4.86-70.4-20.31-17.89-50.62-16.46-69.44,2.28-19.18,19.1-19.97,50.94-.34,70.07,4.27-14.27,13.78-17.73,26.96-24.11l-13.58-7.03,6.61-33.71c1.39-7.1,12.38-9.97,18.85-9.37,6.5.6,15.09,5.39,16.44,13.4ZM148.8,391.98c60.9,49.41,143.71,47.46,202.93-1.5-3.62-3.21-7.07-5.73-11.29-8.23-52.83,44.66-127.26,43.62-181.58,1.77-3.73-.17-9.96,4.63-10.06,7.96Z"/>
  <path class="cls-1" d="M272.58,103.04c.92,16.64-10.05,36.19-22.09,36.61-13.14.47-25.31-18.73-24.64-36.46.57-15.08,8.36-24.61,22.43-25.47,14.97-.92,23.43,9.61,24.3,25.32Z"/>
  <path class="cls-1" d="M336.12,232.46c.92,16.64-10.05,36.19-22.09,36.61-13.14.47-25.31-18.73-24.64-36.46.57-15.08,8.36-24.61,22.43-25.47,14.97-.92,23.43,9.61,24.3,25.32Z"/>
  <path class="cls-1" d="M130.59,334.17c-4.09,7.41-10.31,11.13-16.64,10.91-6.67-.23-13-5.1-16.49-12.7s-3.6-20.96.78-28.75c6.32-11.24,25.25-11.44,32.14-.82,5.62,8.67,5.37,22.01.21,31.36Z"/>
</svg>