<?xml version="1.0" encoding="UTF-8"?>
<svg id="Layer_1" data-name="Layer 1" xmlns="http://www.w3.org/2000/svg" viewBox="0 0 500 500">
  <defs>
    <style>
      .cls-1 {
        fill: #164f78;
      }
    </style>
  </defs>
  <path class="cls-1" d="M320.21,342.2c12.15-5.54,22.2-14.08,30.8-23.01,8.79-9.13,31.41-37.49,43.56-22.52,3.71,4.57,3.44,14.74-.67,19.51l-40.11,46.62c2.9,2.21,8.07,1.64,9.89-.39l37.29-41.55c11.05-12.32,6.65-24.83-4.93-36.59,6.11-20.41,13.23-42.02,21.14-61.93,2.3-5.78,12.98-8.95,17.55-7.54,5.69,1.76,10.3,9.05,9.17,15.68l-15.14,88.44c-8.54,49.87-33.89,64.6-72.73,95.76-12.54,10.06-16.29,24.62-19.2,41.95l-68.47.1,3.31-43.91c2.34-31.09,19.4-57.33,48.54-70.62Z"/>
  <path class="cls-1" d="M125.66,296.03c20,18.42,31.08,35.73,53.14,45.53,30.2,13.41,47.43,41,49.66,73.8l2.81,41.41-68.22-.16c-3.37-16.56-6.64-30.91-18.07-40.84-37.48-32.57-65.7-46.59-74.14-96.83l-14.7-87.41c-1.06-6.29,3.08-14.57,7.85-16.4s15.97.82,18.28,6.59c8.41,21.03,14.94,40.88,22.17,63.26-13.48,9.59-15.68,24.42-5.22,36.12l37.32,41.75c1.66,1.85,9.8,1.49,8.64-.04-12.67-16.7-24.99-30.33-38.36-45.08-5.05-5.57-6-15.65-1.26-21.09,3.59-4.12,14.99-5.29,20.08-.61Z"/>
  <path class="cls-1" d="M316.6,111.58l.24-20.1,30.9.79c10.42.26,17.57,11.38,17.53,20.9l-.4,93.5c-.29,66.42-58.05,118.45-115.66,142.44-57.44-24.45-114.9-77.33-115.23-140.55l-.49-94.64c-.07-12.84,9.39-22.45,22.35-22.3l26.66.31v19.63s-28.34.93-28.34.93l.3,90.53c.19,57.69,46.76,100.73,95.97,123.14,54.29-27.34,94.63-67,94.51-129.64l-.16-84.11-28.18-.83Z"/>
  <path class="cls-1" d="M303.92,120.79l-106.88.17c-3.7-12.55-3.29-25.3-.72-39.24l26.32-2.11c2.34-14.77,11.51-25.19,25.3-25.75,14.52-.59,26.28,8.41,27.53,25.24l27.53,2.79c2.32,12.82,2.58,23.03.91,38.9ZM243.63,69.93c-4.82,3.29-4.69,12.05-1.69,14.39s9.47,3.81,12.23,2.05c3.8-2.42,5.45-10.57,3.56-13.84-1.9-3.29-9.95-5.44-14.1-2.61Z"/>
  <polygon class="cls-1" points="190.23 213.7 208.6 194.53 236.77 221.54 297.07 159.27 316.75 177.35 236.66 260.6 190.23 213.7"/>
</svg>