<?xml version="1.0" encoding="UTF-8"?>
<svg id="Layer_1" data-name="Layer 1" xmlns="http://www.w3.org/2000/svg" viewBox="0 0 500 500">
  <defs>
    <style>
      .cls-1 {
        fill: #164f78;
      }
    </style>
  </defs>
  <path class="cls-1" d="M358.74,472h-217.77c-2.71-20.6,14.01-39.93,35.52-40.08l56.49-.4-.07-263.45-17.61-19.66-100.7-.05,64.78,156.68c8.11,19.61-21.05,65.73-71.29,68.74-58.74,3.53-88.93-49.71-81.34-68.12l64.33-155.88c-9.94-2.34-17.33-6.49-18.51-11.89-2.16-9.88,4.18-16.89,14.15-16.91l126.77-.14,18.74-21.26.93-26.72c.34-9.82,8.26-16.87,16.81-16.61,25.35.77,12.25,34.15,18.16,43.89l17.76,20.62,128.05.24c8.57.02,14.42,8.78,12.93,16.25-1.44,7.25-8.85,10.77-18.77,12.09l64.77,154.27c9.3,22.14-23.12,69.77-74.9,70.42s-86.08-48.89-77.34-69.93l64.68-155.75-100.6.08-18.13,18.86-.02,264.11,54.63.36c21.26.14,38.28,15.29,37.56,40.22ZM160.59,305.67l-57.42-137.63-57.2,138.36,114.62-.72ZM454.16,305.9l-57.78-136.71-56.96,137.45,114.75-.74Z"/>
</svg>