<?xml version="1.0" encoding="UTF-8"?>
<svg id="Layer_1" data-name="Layer 1" xmlns="http://www.w3.org/2000/svg" viewBox="0 0 500 500">
  <defs>
    <style>
      .cls-1 {
        fill: #164f78;
      }
    </style>
  </defs>
  <path class="cls-1" d="M155.88,221.4l-82.61-.15c-3.02,0-7.44-4.46-7.84-6.77-.48-2.77,3.97-8.54,6.97-8.6l32.6-.66,2.17-13.24,59.07.08c2.94,0,8.37-4.34,8.54-7,.22-3.45-4.72-7.92-8.84-7.92l-110.67.11c-2.74,0-7.46-2.53-8.79-4.46-1.61-2.33,1.55-10.8,4.8-10.85l53.99-.84c.28-8.93.87-16.27,4.99-24.4l197.02-.24c6.06.36,10.89,4.84,10.89,10.8l-.05,137.49H106.46s-1.09-29.89-1.09-29.89l-62.23-.15c-2.97,0-8.36-3.62-8.91-6.3-.67-3.3,3.77-9.62,7.15-9.69l63.52-1.32,51.94-1.36c2.44-.06,6.71-4.68,6.8-6.98.11-2.76-4.64-7.67-7.77-7.67Z"/>
  <path class="cls-1" d="M424.93,333.36c-1.67-24.48-19.5-39.37-40.64-39.21s-36.7,17.55-39.31,39.26l-122.97-.1c-2.15-16.39-9.08-25.96-22.62-36.83l130.48-.43.21-114.05c0-3,5.51-7.94,8.44-8.84l51.77.13c4.51.01,13.57,3.73,15.76,6.95l46.8,68.99.58,51.99c5.59,4.09,12.11,8.49,12.36,13.35.27,5.37-1.7,17.59-6.34,17.87-12.07.73-21.36.82-34.53.91ZM426.4,240.45l-33.36-49.48-43.35.6.03,49.39,76.67-.52Z"/>
  <path class="cls-1" d="M175.51,304.5c17.33-4.18,31.87,8.02,35.34,21.32,4.52,17.3-6.49,32.76-20.23,36.48-17.52,4.74-32.45-5.05-36.92-19.21-5.26-16.65,3.54-34.18,21.81-38.59ZM175.27,322.04c-7.53,3.72-8.32,14.31-4.48,19.73,3.35,4.72,12.12,6.5,16.99,4.16,6.89-3.31,8.52-12.27,5.97-18.34s-11.04-9.24-18.48-5.56Z"/>
  <path class="cls-1" d="M378.02,304.62c17.52-4.39,32.26,7.05,35.94,21.02,4.49,17.02-5.08,32.95-20.28,36.81-16.61,4.22-31.75-4.22-36.69-19.76-4.87-15.32,2.76-33.49,21.03-38.07ZM378.01,322.59c-6.37,3.8-7.39,14.05-3.99,18.75,4.13,5.72,12.89,7.5,18.14,4.34,6.05-3.65,8-12.45,5.86-17.11-3.48-7.62-11.75-10.91-20.01-5.98Z"/>
  <path class="cls-1" d="M142.59,332.25c-9.79,1.07-25.13,3.36-33.49-1.92-7.45-7.75-3.79-22.44-1.2-33.82l56.09-.17c-12.32,11.38-20.52,17.74-21.4,35.9Z"/>
</svg>