<?xml version="1.0" encoding="UTF-8"?>
<svg id="Layer_1" data-name="Layer 1" xmlns="http://www.w3.org/2000/svg" viewBox="0 0 500 500">
  <defs>
    <style>
      .cls-1 {
        fill: #164f78;
      }
    </style>
  </defs>
  <path class="cls-1" d="M373.69,449.59l-245.76.29c-3.33,0-6.19-5.94-5.58-7.76.6-1.78,3.84-5.53,6-5.58l27-.66.59-89.14,94.05-73.16,93.66,72.75.2,89.48,29.2.25c3.54.03,5.69,13.52.65,13.52ZM276.66,436.69l-.95-71.29-52.6.74.13,70.6,53.42-.05Z"/>
  <path class="cls-1" d="M255.97,222.38c-.03,3.36-11.74,3.69-11.88.33l-1.24-28.93c-21.8-.57-39.69,7.53-59.77,20.82,1.18-39.82,8.79-79.16,29.63-112.94,8.16-13.21,22.01-28.65,38.07-27.23,45.31,4.01,66.88,102.42,65.94,140.16-19.79-13.64-38.83-20.32-60.51-20.96l-.25,28.74Z"/>
  <path class="cls-1" d="M429.9,208.52c-33.15-19.5-72.44-20.61-101.88,5.92-3.44-28.03-7.68-53.96-16.25-80.19-8.41-22.34-20.15-40.69-37.52-59.3,74.21,7.83,137.66,58.37,155.66,133.57Z"/>
  <path class="cls-1" d="M172.12,213.87c-29.4-24.03-68.44-26.5-102.02-4.6,14.82-74.7,81.71-126.69,155.47-134.21-14.61,14.77-25.01,29.01-33.2,46.64-11.63,28.76-17.14,57.29-20.26,92.17Z"/>
  <path class="cls-1" d="M340.1,302.64l37.8,31.32c-3.74,6.17-7.25,10.73-13.13,16.61l-115.19-90.01-112.87,88.57c-6.32-1.6-11.5-8.35-14.78-15.77l127.36-100.88,55.02,42.61,1.85-21.72,33.56.18.38,49.1Z"/>
  <path class="cls-1" d="M250.05,50.12c6.91-.19,5.61,15.97,4.39,15.94l-8.99-.27c-1.96-.06-1.43-6.34-1.37-9.44.04-2.13,3.84-6.16,5.97-6.22Z"/>
</svg>