<?xml version="1.0" encoding="UTF-8"?>
<svg id="Layer_1" data-name="Layer 1" xmlns="http://www.w3.org/2000/svg" viewBox="0 0 500 500">
  <defs>
    <style>
      .cls-1 {
        fill: #164f78;
      }
    </style>
  </defs>
  <path class="cls-1" d="M250.06,461.61c-95.72-42.5-179.97-108.15-179.14-221.71l1.01-137.32c66.79-3.17,126.8-22.61,177.96-64.2,48.04,38.72,105.42,59.91,167.23,62.85,4.1.2,9.16,2.79,11.96,5.4l-.63,144.38c-.45,103.41-89.88,172.64-178.39,210.59ZM251.29,430.66c34.79-17.52,62.64-35.68,90.47-59.32,31.29-30.36,57.12-69.35,57.26-114.42l.39-127.49c-55.12-7.15-104.82-24.86-149.35-54.45-45.36,29.81-94.81,47.67-149.84,54.29l-.11,127.79c5.52,44.7,25.83,84.28,58.89,114.28,28.46,23.77,57.92,44.04,92.31,59.31Z"/>
  <path class="cls-1" d="M320.94,300.07l-140.81-.1-2.45,20.25c-13.86,1.85-26.12,2.06-40.49-1.18l-.78-67.24c-.14-12.37,4.83-23.79,12.62-34.05l-16.35-4.25c-4.36-1.13-4.39-14.14.3-16.01,8.89-3.52,17.07-2.5,27.02.99l16.93-33.82c2.32-4.64,10.11-9.55,15.92-10.21,39.86-4.51,77.28-4.5,117.09.37,5.6.68,12.99,6.78,15.22,11.46l15.39,32.28c10.11-3.29,18.6-4.31,27.88-1.64,4.29,1.24,4.9,15.07.79,16.15l-17.72,4.68c6.85,9.57,12.48,20.23,12.39,31.52l-.56,70.1c-14.65,2.68-26.34,2.44-40.4.9l-1.98-20.18ZM331.6,209.4c-5.96-15.84-11.28-27.36-18.72-41.22-42.07-7.01-83.1-7.17-124.97-.03-7.68,14.11-13.35,26.57-18.07,41.43l161.76-.19ZM189.99,263.36c11.21-17.54-25.51-24.64-35.52-22.1-4.76,1.21-4.07,17.2.8,18.37,11.17,2.69,22.48,3.33,34.72,3.73ZM311.9,261.99c12.09,1.94,23.12.83,33.47-2.14,5.45-1.56,6.7-17.71.97-18.81-10.94-2.1-21.3,2.54-31.78,6.4-4.67,1.72-8.44,13.62-2.66,14.55ZM284.88,274.99c5.16-7.66,7.43-15.73,6.8-25.63l-81.91-.24c-2.62,8.13.78,23.3,8.58,25.6l66.54.28Z"/>
</svg>