<?xml version="1.0" encoding="UTF-8"?>
<svg id="Layer_1" data-name="Layer 1" xmlns="http://www.w3.org/2000/svg" viewBox="0 0 500 500">
  <defs>
    <style>
      .cls-1 {
        fill: #164f78;
      }
    </style>
  </defs>
  <path class="cls-1" d="M232.6,396.42l2.21,4.29c.62,1.21,6.5-1.19,6.51-3.15l.31-69.55,73.76-53.83,74.99,53.63.27,72.19,23.95,1.1-.05,11.21-345.63.04c-2.86,0-3.37-8.72-1.83-11.01l21.93-1.38.21-224.18,10.35-1.08c4.27-.45-.13-17.17,3.49-17.63l9.77-1.23,1.5-15.24,21.01-.58.57-37.12c.03-1.63,2.28-4.37,3.57-4.56s3.68,2.96,3.68,4.59l.16,36.77,21.99,1.11,1.45,15.02,9.23,1.49c3.3.53.1,16.51,2.45,16.83l11.42,1.58.33,223.62c2.41.67,6.64.74,8.76.16l.2-164.58,33.87,18.12-.1,41.72-30.29,22.38,20.68,23.59,9.14-4.12.16,59.81ZM132.62,205.67l-.29-14.29-27.39-.2.55,14.18,27.13.31ZM174.3,205.29l-.32-14.01-26.74.2c-.57,4.11-.27,11.12.8,13.79l26.26.02ZM132.9,234.68l-.68-14.58-27.26.35.02,14.38,27.93-.14ZM174.24,234.75l-.33-14.47h-26.76s-.06,14.43-.06,14.43l27.15.03ZM132.74,264l-.06-14.66-27.77.15.52,14.65,27.32-.15ZM174.42,264.14l-.77-14.85-26.5.29.03,14.69,27.23-.12ZM133,293.68l-.77-14.67-27.13.21-.13,14.47h28.04ZM174.26,293.4l-.67-14.29-26.64-.13.09,14.39,27.23.04ZM132.76,322.96l-.68-14.54-27.16-.09.35,14.67,27.49-.04ZM174.17,322.89l-.14-14.58-26.82.16-.12,14.59,27.07-.17ZM132.77,351.81l-.74-14.13-26.88.16-.2,14,27.82-.04ZM174.15,351.78l-.6-13.99-26.37-.1.11,14,26.85.08ZM304.98,400.12l-.16-59.73-35.07-.08.15,60.3,35.08-.49ZM367.3,372.56l-.4-32.36-38.9.23.13,32.01,39.18.11ZM132.66,381.19l-.5-14.23-27.23-.02.45,14.31,27.28-.06ZM174.16,381.06l-.24-14.14-27.05.13.18,14.3,27.11-.29Z"/>
  <path class="cls-1" d="M360.98,151.78l-83.36.27c9.81,10.58,6.86,35.73,4.36,35.85l-11.88.57-.2,74.67c-.01,3.99-6.09,10.62-8.71,8.65l-10.78-8.11c-4.1,6.8,4,15.96-6.07,22.68l-1.24-132.44c-4.14-1.96-12.51-2.34-16.22-1.45l-3.15,11.87-27.59-.3-.12-26.85,57.9-49.52,142.79,42.14c3.63,1.07,12.39.32,16.92.45l20.14,20.89-31.54.83-12.27,9.17.43,39.11-6.07,9.06c3.53,4.94,6.59,9.98,6.12,13.43-.74,5.38-7.11,8.43-12.32,7.96-5.01-.45-10.4-6.39-6.51-11.11l6.85,6.18c1.45,1.31,5.84-1.84,7.97-4.41l-15.8-19.95-.13-38.48-9.51-11.15ZM292.78,130.17l84.08-.56-117.24-34.76,9.71,47.02c.36,1.76,3.34,5.34,4.51,4.72.79-.42,3.2-1.71,3.93-2.4l15-14.01ZM226.79,145.83h17.4s6.93-48.68,6.93-48.68l-42.92,36.35,14.9,1.63c2.22.24,2.81,7.47,3.69,10.71ZM264.89,145.07l-8.69-40.88-7.29,41.87c6.41.04,11.83-.25,15.99-.98ZM313.99,136.66l-12.48-.07c2.36,3.51,5.1,7.44,6.97,6.7s5.14-5.29,5.51-6.63ZM344.69,136.86l-13.48-.65c1.83,3.58,5.84,8.93,7.34,7.3l6.13-6.65ZM373.81,136.41l-13.61-.06c2.04,2.93,4.76,7.19,6.81,6.92s4.5-3.81,6.8-6.86ZM403.28,136.07l-13.61.99c2.6,3.54,7.15,7.38,8.45,5.69l5.16-6.68ZM300.78,146.09c-1.5-3.23-5.07-8.54-7.51-8.06s-5.65,3.68-9.85,7.61l17.36.45ZM330.87,145.69c-3.58-4.82-6.89-8.26-8.89-7.42-2.01.85-4.65,4.69-6.06,7.8l14.95-.38ZM359.32,145.84c-.58-2.51-4.78-7.51-7.1-7.2-2.32.31-5.22,4.19-6.65,7.26l13.75-.05ZM389.2,145.68c-2.27-3.98-6.57-9.2-8.34-7.51-1.72,1.64-4.47,5.13-6.11,7.45l14.45.06ZM422.16,145.7c-5.52-5.21-8.93-8.6-11.29-7.99s-5.03,4.36-7.29,8.26l18.58-.26ZM277.94,169.37c1.09-3.29-1.25-10.52-3.93-12.99-2.95-2.71-9.13-3.74-13.19-3l-.34,16.31,17.46-.33ZM385.98,188.65l-.25-29.31-11.15-.11v29.82s11.4-.39,11.4-.39ZM259.97,190.05c-5-1.24-10.27-1.88-10.13-.09l.51,6.44,9.62-6.35ZM263.34,210.23l-.43-15.87-11.05,7.74,11.48,8.14ZM261.22,215.47l-11.01-7.64-.37,16.58,11.38-8.94ZM263.65,237.65l-.61-16.23-10.95,8.88,11.56,7.35ZM261.62,242.92l-11.79-7.51.02,16.36,11.77-8.85ZM262.98,266.23l.09-16.87-10.97,7.44,10.88,9.43Z"/>
  <path class="cls-1" d="M414.43,316.52c1.29,3.39-4.91,12.35-9.12,11.87l-89.67-63.76-88.7,63.77c-4.51-.23-9.59-6.3-10.75-11.17l99.23-71.64,40.95,28.47,2.45-15.02,23.46.05.52,34.33,31.63,23.11Z"/>
</svg>