<?xml version="1.0" encoding="UTF-8"?>
<svg id="Layer_1" data-name="Layer 1" xmlns="http://www.w3.org/2000/svg" viewBox="0 0 500 500">
  <defs>
    <style>
      .cls-1 {
        fill: #164f78;
      }
    </style>
  </defs>
  <path class="cls-1" d="M138.12,400.86c-18.04-1.77-26.98-16.81-23.01-32.68,7.54-30.15-12.04-15.33-6.77-42.48-15.7-15.53,2.06-29.44-4.46-33.38-9.08-5.5-28.29-10.39-26.11-19.09,4.55-18.23,15.48-33.53,26.35-47.41,23.44-29.96-15.06-23.37,15.72-99.83,33.85-84.1,137.04-102.85,213.33-73.28,39.57,15.34,67.98,46.84,81.08,86.57,16.9,51.24,6.98,102.93-24.29,146.34-32.12,44.6-29.49,73.05-13.11,124.95l-160.63,49.87-13.9-44c-7.83-24.79-27.24-11.95-64.19-15.56ZM287.05,283.36l5.28-23.6,19.78-8.28,20.72,13.08,21.47-23.09-10.43-18.67c-2.35-4.21,3-17.18,6.48-20.31l22.46-6.04.11-31.84-20.55-5.49c-5.13-1.37-10.57-15.16-8.31-19.89l10.56-19.83-21.98-21.8-20.07,13.05c-5.36-2.28-16.02-7.26-21-9.99l-5.41-22.39-31.69.19-5.28,23.99-19.44,8.04-20.2-12.57c-8.37,7.14-16.39,14.95-22.62,22.32l11.17,19.06c2.38,4.69-3.77,18.45-8.84,19.73l-20.99,5.28.39,32.36,23.61,5.77c2.18,4.58,6.38,14.59,7.73,18.6l-13.04,19.58,22.26,24.05,21.9-13.74,18.08,9.07,5.42,23.61,32.44-.25Z"/>
  <path class="cls-1" d="M256.28,134.48c26.78-8.78,53.18,7.05,61.12,31.76,8.12,25.25-6.53,52.25-32.45,60.63-24.17,7.82-50.56-5.19-59.61-29.37-9.4-25.1,2.79-53.8,30.95-63.03Z"/>
</svg>