<?xml version="1.0" encoding="UTF-8"?>
<svg id="Layer_1" data-name="Layer 1" xmlns="http://www.w3.org/2000/svg" viewBox="0 0 500 500">
  <defs>
    <style>
      .cls-1 {
        fill: #164f78;
      }
    </style>
  </defs>
  <path class="cls-1" d="M284.23,199.31l-34.78,110.45-41.95-154.78c-.66-2.45-5.1-6.83-7.54-7.45-2.93-.74-8.51,4.12-9.46,7.38l-28.76,98.49-94.17.03c-28-56.86-25.88-128.67,28.41-166.54,52.3-36.48,121.93-18.05,153.53,38.21,24.29-41.53,66.59-63.19,112.16-55.3,43.59,7.55,78.3,42.57,86.15,88.87,6,32.38-2.14,63.74-16.29,94.55l-86.72.58-17.22,21.75-27.29-76.41c-.85-2.38-5.17-5.82-7.11-6.14-2.44-.4-7.96,3.23-8.94,6.32Z"/>
  <path class="cls-1" d="M474.57,290.55l-66.17.6c-43.16,57.09-98.92,101.25-158.78,140.83-61.15-38.94-115.15-84.79-160.06-140.88l-65.12-.5c-3.53-.03-8.63-6.79-8.57-10,.08-4.32,6.12-9.72,11.24-9.73l147.58-.34,24.17-76.33,40.99,152.27c.81,2.99,5.91,8.07,8.79,8.25,2.88.18,8.39-4.61,9.23-7.37l34.91-114.6,23.9,64.88c.97,2.62,5.21,7.23,7.86,7.39,2.65.16,8.48-2.97,10.18-5.62l18.02-28.08,120.18-.82c3.66-.02,10.23,4.95,11.09,8.13,1.03,3.8-4.28,11.88-9.44,11.92Z"/>
</svg>