<?xml version="1.0" encoding="UTF-8"?>
<svg id="Layer_1" data-name="Layer 1" xmlns="http://www.w3.org/2000/svg" viewBox="0 0 500 500">
  <defs>
    <style>
      .cls-1 {
        fill: #164f78;
      }
    </style>
  </defs>
  <path class="cls-1" d="M432.73,236.18c-1.02,121.52-80.26,181.23-182.49,230.13-41.72-17.93-79.4-40.5-113.15-70.38-41.3-38.79-67.1-88.63-69.82-145.65l.51-151.5c67.69-4.85,129.41-23.03,181.58-65.1,52.04,41.44,113.85,60.73,182.75,64.69l.62,137.81ZM250.57,433.62c30.39-16.84,56.04-32.12,81.4-51.8,43.56-35.21,68.94-84.92,70.07-141.19v-113.82c-54.75-6.75-105.03-24.07-152.61-54.36-46.1,28.87-95.75,47.58-150.98,54.03l-.05,115.3c.21,53.11,23.67,100.02,63.23,134.69,27.51,22.82,56.44,41.14,88.93,57.15Z"/>
  <path class="cls-1" d="M287.58,333.75c-.64,23.5-24.32,36.46-42.79,34.03-23.51-3.09-36.4-23.1-33.2-47.11,1.35-10.11-1.7-17.85-7.37-24.67-6.55-7.88-14.69-8.88-26.52-7.75-22.17,2.1-40.81-10.43-44.26-31.6-2.95-18.08,7.1-41.55,29.17-43.96,15.72-1.72,31.3-1.23,48.11-1.71l.27-39.81c.16-23.99,19.22-41.13,41.38-39.51,24.26,1.77,38.74,22.94,35.9,48.39-.92,8.19.05,19,4.58,23.87,6.22,6.68,16.2,8.87,25.7,7.62,24.64-3.23,44.76,10.06,47.69,32.54,3.06,23.5-13.61,44.19-38.76,44.24l-38.66.09-1.24,45.35ZM244.73,241.39l25.63,24.79,20.72-21.21c8.94-9.15,7.58-24.41-.5-32.82-6.68-6.95-21.35-11.72-30.45-2.97l-22.14,21.28c-1.08,1.04,2.22,6.98,3.27,5.91l3.46-3.56c6.36-6.55,11.9-12.19,20.02-16.47l-20,25.05ZM244.75,292.16l20.95-21.55-33.92-33.86-22.15,22.76c-9.32,9.58-6.29,25.33,1.26,32.59,9.45,9.08,24.65,9.52,33.86.05Z"/>
</svg>