<?xml version="1.0" encoding="UTF-8"?>
<svg id="Layer_1" data-name="Layer 1" xmlns="http://www.w3.org/2000/svg" viewBox="0 0 500 500">
  <defs>
    <style>
      .cls-1 {
        fill: #164f78;
      }
    </style>
  </defs>
  <path class="cls-1" d="M303.55,385.78l-111.57-.43c-8.19-.03-18.52-9.06-18.92-17.13-1.63-32.65-14.93-57.86-34.91-82.32-49.37-60.45-44.73-147.44,10.86-200.39,55.22-52.6,142.09-54.25,199.19-2.36,55.56,50.5,64.77,137.04,16.62,198.59-20.06,25.65-36.29,50.72-38.22,85-.62,10.99-12.62,19.08-23.04,19.04ZM246.97,290.93c12.9-37.6,29.01-66.69,50.16-97.46-19.41,12.4-29.68,31.48-42.52,51.21-14.7-28.08-4.34-61.71,23.99-77.28,18.38-10.11,37.1-16.84,58.06-25.23,3.2,57.13.57,105.57-62.71,121.65-19.12,28.01-21.08,65.13-20.58,99.87l51.9.77c3.07-36.57,19.23-65.94,41.94-94.38,27.56-34.52,35.66-79.38,19.51-122.86-12.9-34.73-43.85-65.7-84.95-76.83-53.01-14.35-108.27,8.87-136.65,53.12-30.11,46.95-25.35,105.35,9.9,149.24,21.78,27.12,37.71,55.84,39.24,91.43l45.95-.29c1.53-29.3,2.44-60.45-13.8-85.27-51.56-7.91-58.8-39.53-64.8-89.38,39.04,3.43,83.78,26.12,75.57,70.68l-10.28-7.72,20.08,38.75Z"/>
  <path class="cls-1" d="M308.65,420.94l-116.39.02c-5.17,0-11.78-8.2-10.91-12.94,1.04-5.64,7.42-10.3,13.63-10.3l111.62.05c4.69,0,11.17,5.8,12.03,9.89.84,3.99-4.61,13.27-9.98,13.27Z"/>
  <path class="cls-1" d="M306.65,454.86h-112.04c-6.38.01-12.79-5.48-12.88-11.35-.08-5.8,6.51-11.41,12.88-11.41l112.06.11c5.16,0,11.66,6.71,11.58,11.35-.08,4.66-6.46,11.3-11.61,11.31Z"/>
</svg>