<?xml version="1.0" encoding="UTF-8"?>
<svg id="Layer_1" data-name="Layer 1" xmlns="http://www.w3.org/2000/svg" viewBox="0 0 500 500">
  <defs>
    <style>
      .cls-1 {
        fill: #164f78;
      }
    </style>
  </defs>
  <path class="cls-1" d="M257.48,409.58c1.58,9.01,17.38,12.17,11.44,25.06-3.13,6.78-8.12,15.02-18.83,15.24-8.16.17-17.06-5.81-19.55-13.86-3.21-10.38,2.03-19.45,12.99-24.92l.51-78.54c-2.77-1.82-10.05-2.25-14.25-1.44l-.47,31.34c-.04,2.47-4.14,7.03-6.05,6.46s-5.27-4.37-5.3-6.45l-.37-29.34c-.04-2.88-10.3-3.49-13.09-1.7l-.76,44.5-17.59,26.59c6.05,9.88,5.38,19.73-1.43,26.5-6.41,6.37-16.96,7.29-23.85,3.23-8.98-5.29-11.77-15.37-8.84-23.56,3.48-9.72,11.87-14.38,23.57-12.83l16.9-23.57-.15-41.65c-8.86-.69-15.01-1.17-18.52-4.04-4.51-3.7-5.37-10.31-5.77-19.84h-41.45s-23.72,16.76-23.72,16.76c-.46,11.6-3.74,20.53-12.88,23.81-9.06,3.25-19.62.09-24.33-7.68-5.04-8.32-4.08-19.12,3.52-25.88,6.74-6,16.68-6.34,26.43-.1l27.63-18.33,43.88-.53.71-14.04-30.96-.38c-1.97-.02-5.87-3.05-6.47-4.61-.8-2.1,3.63-6.53,6.36-6.54l30.98-.18.3-13.7-80.45.45c-5.7,8.75-13.78,15.8-22.74,13.63-9.2-2.22-15.79-9.96-16.24-18.39-.54-10.18,6.43-17.45,14-20.14,11.84-4.2,19.13,3.88,25.45,12.6l78.21.45c1.06-3.03,1.59-9.35,1.43-13.44l-31.08-.63c-2.32-.05-6.17-3.3-6.6-5.28s4.21-6.03,6.61-6.04l31.2-.12.05-14.12-45.37-.98-26.57-17.09c-9.91,5.93-19.1,5.76-26.08.19-7.65-6.11-9.66-16.47-4.86-25.63,3.54-6.76,13.91-11.18,21.88-9.15,10.42,2.66,16.22,11.1,15.34,23.84,32.4,23.12,22.28,17.13,64.59,16.89,1.62-5.81,3.3-13.85,5.86-17.43,3.07-4.29,12.49-5.52,19.88-6.22l-.6-40.35c-2.62-6.71-11.52-18.4-15.83-23.48-10.82-.45-19.44-3.16-23.31-11.41s-1.26-19.09,6.56-23.91c8.21-5.06,18.76-4.7,26.23,3.21,5.7,6.02,4.4,16.16,1.29,25.3l16.88,26,.74,43.06c.31,3.14,12.75,3.31,12.95.12l.67-30.81c.04-2.06,3.51-5.89,5.4-6.1,2.36-.26,6.2,4.92,6.23,7.37l.31,31.78,14.07-1.5-.6-78.79c-9.5-5.69-15.47-13.57-13.4-22.85,1.97-8.82,9.94-15.62,17.9-16.2,10.74-.79,17.25,6.65,20.28,13.99,4.93,11.96-5.88,18.65-12.11,25.48-1.26,24.73-1.09,52.91-.78,77.31.04,3.24,13.22,3.52,13.26.26l.36-29.31c.03-2.49,3.25-7.11,5.6-7.52s6.39,4.95,6.4,7.65l.18,30.96,13.59.3.61-43.81,16.53-26.42c-3.2-9.59-4.93-18.83-.47-24.66,6.74-8.79,17.58-10.13,25.32-6.32,9.23,4.55,12.79,14.99,9.42,24.06s-12.55,13.08-23.8,12.59l-15.33,23.44-.37,40.63c7.63,1.14,13.94,1.89,17.93,4.52s5.2,11.74,6.33,18.88l39.74.6c8.13-4.06,19.41-11.94,27.04-17.29-1.09-11.8,3.83-19.97,11.83-22.81,8.85-3.14,19.11-.44,24,7.01,4.68,7.14,3.69,17.77-1.28,23.68-7.35,8.73-17.11,7.72-28.38,3.09l-27.82,17.12-45.62.74.76,13.98,31.96.24c2.12.02,6.42,4.11,6.15,5.98s-4,5.24-6.08,5.28l-32.33.66.77,13.25,79.31.12c5.91-8.01,12.64-15.32,22.03-14.1,9.91,1.29,17.91,8.58,18.28,19.14.33,9.41-6.53,17.82-16.13,20.57-9.92,2.83-17.58-6.01-23.98-13.67l-79.94-.81-.62,14.08,30.82.04c2.24,0,6.6,2.55,7.53,4.37.93,1.84-3.34,6.85-5.65,6.89l-32.45.48-.43,13.81,46.37.72,26.35,18.04c9.23-4.46,18.88-5.88,25.79-.68,8.21,6.18,9.74,16.85,5.87,24.75-4.33,8.86-14.33,12.6-23.46,10.34-9.93-2.47-15.12-11.88-14.23-24.38l-24.25-16.64-42.22-.17c-.52,7.86-.85,15.7-4.79,19.52-3.6,3.49-11.57,3.97-19.76,4.41l.13,41.02,16.87,23.28c10.86.83,19.23,2.65,23.43,13.21,2.89,7.25.74,18.37-7.43,23.66-7.78,5.03-18.73,3.65-25.53-3.36-6.79-7-6.21-16.94-.78-27.1l-17.71-26.08-.77-44.46-13.08.22-.36,31.95c-.02,2.15-4.34,6.48-6.41,6.22s-5.42-4.36-5.45-6.7l-.32-29.17c-.04-3.77-13.21-3.71-13.16-.33.33,25.09-2.53,51.63,1.86,76.66ZM244.62,62.85c-3.35,1.73-3.81,10.46-1.15,12.9,2.37,2.17,8.56,2.74,11,.67,2.72-2.3,3.79-8.77,1.97-11.4-1.56-2.25-8.92-3.67-11.82-2.18ZM166.67,78c-3.36,2.14-5.55,8.67-3.44,11.02,2.89,3.23,8.25,5.33,10.91,3.52,2.98-2.02,5.28-9.3,3.61-11.97-1.43-2.29-8.8-4.01-11.08-2.57ZM322.87,78.72c-3.63,3.59-2.72,11.49.23,12.95,2.43,1.2,8.21,1.44,10.28-.32,2.41-2.04,2.9-8.87,1.24-11.56-1.42-2.31-9.54-3.26-11.75-1.07ZM78.29,163.64c-3.08,1.09-5.19,8.68-3.54,11.49,1.73,2.95,8.97,5.27,11.79,3.62s4.23-9.38,2.99-12.46c-1.04-2.6-7.41-4.01-11.24-2.65ZM413.38,163.55c-3.6,2.1-5.63,8.41-3.8,10.99,2,2.82,8.85,5.13,11.57,3.56s4.22-9.03,2.9-11.89c-1.13-2.45-8.32-4.03-10.67-2.67ZM292.33,293.18l-.03-86.94-86.29.6.22,86.37,86.1-.03ZM65.77,241.73c-3.24.09-6.19,7.94-5.26,11.47.79,3.02,8.32,4.69,11.6,3.52,3.08-1.09,4.65-6.5,3.68-10.32-.67-2.63-5.67-4.8-10.02-4.68ZM427.77,242.2c-3.26,1.15-5.81,8.53-4.05,11.28,1.89,2.95,9.03,5.13,11.95,3.69,3.08-1.52,4.75-9.02,3.06-12.13-1.33-2.45-7.37-4.11-10.96-2.83ZM76.66,322.19c-3.65,3.7-2.82,11.18.53,13.26,2.9,1.8,9.57,1.86,11.45-.62,2.13-2.81,2.99-8.3,1.22-10.82-2.04-2.9-10.83-4.22-13.2-1.81ZM411.23,322.32c-2.93,3.02-3.11,10.24-.3,12.08,3.2,2.09,9.3,3.34,11.48.9,2.56-2.87,3.71-10.65,1.1-12.62-2.36-1.78-10.32-2.38-12.28-.36ZM166.59,407.96c-3.11,1.93-5.41,8.16-3.57,10.73,2.3,3.22,8.95,5.37,11.61,3.65,2.82-1.82,4.52-9.34,2.99-12.12-1.32-2.38-8.54-3.81-11.03-2.27ZM324.88,407.6c-3.16.77-5.48,8.61-3.97,11.39s8.47,4.95,11.32,3.48c2.83-1.46,4.75-8.38,3.49-11.33-1.06-2.5-6.97-4.49-10.84-3.54ZM246.76,422.31c-3.39.44-5.97,8.38-4.66,11.57,1.21,2.94,7.57,4.66,11.42,3.41,2.98-.96,4.43-7.33,3.49-10.55-.75-2.6-6.26-4.94-10.25-4.42Z"/>
</svg>