<?xml version="1.0" encoding="UTF-8"?>
<svg id="Layer_1" data-name="Layer 1" xmlns="http://www.w3.org/2000/svg" viewBox="0 0 500 500">
  <defs>
    <style>
      .cls-1 {
        fill: #164f78;
      }
    </style>
  </defs>
  <path class="cls-1" d="M326.5,391.75l.93-88.17,15.52.09-.09,114.98c-.01,12.21-10.34,22.05-22.79,22.04l-172.7-.07c-13.01,0-22.27-10.91-22.27-23.65l.07-309.83c0-14.98,10.12-23.99,24.25-23.98l170.59.07c11.18,0,22.76,7.88,22.84,19.77l.37,51.69-15.9-4.79-.41-26.98-185.88-.09-.1,268.83,185.56.09ZM259.1,107.57c1.92-2.67,3.86-5.02,2.9-5.76s-5.16-2.85-6.75-2.85l-43.7.15c-1.9,0-5.65,2.73-5.86,4.25s3.95,4.25,5.75,4.25l47.66-.05ZM228.61,404.1c-7.17,3.1-9.33,12.02-6.29,17.81,3.14,5.99,11.88,8.18,17.47,5.52,6.47-3.08,8.48-11.77,5.67-17.72-2.56-5.42-10.7-8.26-16.85-5.61Z"/>
  <path class="cls-1" d="M295.42,208.97l-38.88,48.39,20.89,1.37-.43,32.3-69.76-.52c-16.9-.13-28.21-16.02-28.63-30.54-.49-16.82,12.91-26.9,27.79-31.81,2.56-11,7.89-23.3,16.13-28.35,11.83-7.25,23.17-8.04,36.08-3.92,11.32-24,35.75-37.3,61.73-33.88,24.97,3.29,45.65,21.01,50.76,48.16,23.87,2.04,41.01,20.21,40.09,42.41-.96,23.27-20.2,38.72-43.65,38.48l-54.28-.54-.31-31.85,21.62-1.04-39.15-48.68Z"/>
  <path class="cls-1" d="M222.39,337.08c.88-5.18,7.41-11.62,11.76-13.02l19.66,18.63,43.22-43.85c5.08,3.08,10.14,8.11,12.37,13.62l-55.31,56.82-31.7-32.19Z"/>
</svg>