<?xml version="1.0" encoding="UTF-8"?>
<svg id="Layer_1" data-name="Layer 1" xmlns="http://www.w3.org/2000/svg" viewBox="0 0 500 500">
  <defs>
    <style>
      .cls-1 {
        fill: #164f78;
      }
    </style>
  </defs>
  <path class="cls-1" d="M169.99,290.87l-54.32,55.66c-12.74-18.56-20.01-37.81-22.99-59.64-12.1-88.57,52.8-168.96,143.66-174.89l.11,73.84c-51.03,7.21-83.27,55.14-66.46,105.03Z"/>
  <path class="cls-1" d="M150.19,383.67l51.45-52.65c31.9,20.1,70.53,16.08,97.52-10.69l54.98,47.67c-52.33,58.01-143.23,66.2-203.94,15.67Z"/>
  <polygon class="cls-1" points="305.32 214.97 282.48 195.91 355.19 121.76 333.57 99.25 413.11 82.96 399.46 163.19 377.43 141.83 305.32 214.97"/>
  <path class="cls-1" d="M362.58,358.84l-55.26-48.14c8.2-13.6,11.79-24.48,14.43-39.6l73.35.31c-1.97,33.63-11.6,60.45-32.52,87.43Z"/>
  <path class="cls-1" d="M322.14,258.27c-3.51-12.53-6.08-21.05-11.06-33.75l52.12-53.02c20.03,24.87,30.19,54.09,31.54,86.61l-72.59.15Z"/>
  <path class="cls-1" d="M272.28,191.11l-23.12-5.53-.14-73.49c27.52,1.02,51.23,8.58,76.79,24.43l-53.53,54.59Z"/>
  <polygon class="cls-1" points="107.98 411.51 86.89 390.62 173.97 302.04 193.46 324.57 107.98 411.51"/>
  <path class="cls-1" d="M246.05,320.31l-35.15-41.1c-1.82-2.13-1.59-9.72-1.12-11.66,1.59-6.66,29.71,4.55,35.57-15.01l-35.54-.94c-2.92-1.17-.08-11.54,3.14-11.67l30.68-1.22c-3.4-4.69-9.58-8.42-14.52-8.7l-20.95-1.17c-.31-2.67,3.23-12.28,7.54-12.28h62.47c.02,3.66-.32,9.15-2.41,10.34-7.64,4.33-17.82,1.11-17.39,2.8l2.21,8.7,17.63,1.76c.02,2.38-.56,7.96-2.35,9.58-2.15,1.94-8.6,2.31-13.2,2.33-4.04,14.84-16.41,22.93-32.57,25.02l36.22,42.62c-6.14,1.3-13.45,1.7-20.26.61Z"/>
</svg>