<?xml version="1.0" encoding="UTF-8"?>
<svg id="Layer_1" data-name="Layer 1" xmlns="http://www.w3.org/2000/svg" viewBox="0 0 500 500">
  <defs>
    <style>
      .cls-1 {
        fill: #164f78;
      }
    </style>
  </defs>
  <g>
    <path class="cls-1" d="M255.44,155.39c-18.16,64.28-58.22,15.54-75.79,47.66-6.07,11.1-18.11,19.08-30.2,12.58,5.65-6.06,10.77-10.84,12.68-18.82-10.55,3.25-18.06,14.6-28.96,8.96-8.4-4.34-13.33-25.57-5.9-33.19l44.59-45.77c20.11-20.64,3.39-19.16,56.68-35.06l2.01-42.28c21.6,11.22,27.42,29.79,31.48,50.8,33.68,15.91,53.12,47.17,57.4,84.93,4.26,57.2-22.91,91.75,3.33,147.78l-151.52-.07c-23.81-64.92,51.32-87.62,62.09-134.8,18.22-6.52,29.63-24.7,22.11-42.71ZM212.82,125.51c-.12-3.97-11.58-5.42-13.91-2.5-1.8,2.26-4.3,6.7-5.18,8.97,7.08,4.04,19.39,3.72,19.09-6.47ZM137.16,176.57l-.04,5.79c-.01,1.63,5.05,2.3,5.82.87.89-1.64,2.88-6.3,1.23-6.37l-7.01-.28Z"/>
    <path class="cls-1" d="M362.05,418.56l-221.12-.04c-7.25-31.05,14.15-26.56,28.38-48.96h165.81c12.88,23.22,35.18,17.49,26.93,48.99Z"/>
    <path class="cls-1" d="M334.61,329.58c-10.9-15.84-15.29-37.42-12.74-57.09l7.59-58.37c6.08-46.8-14.29-98.34-59.43-119.4l-6.08-26.82c51.9,12.78,86.03,56.75,89.58,109.09,3.61,53.21-19.89,91.04,9.93,132.42-10.81,6.53-17.52,11.16-28.85,20.16Z"/>
    <path class="cls-1" d="M364.12,450.49l-223.87.05c-6.17,0-11.61-5.52-12.12-10.79-.54-5.58,4.58-12.96,11.79-12.96h224.48c6.04,0,11.79,6.8,11.97,10.98.28,6.61-4.8,12.72-12.25,12.72Z"/>
    <path class="cls-1" d="M338.77,360.83l-169.78.17c-4.42,0-9.72-5.26-10.02-8.9-.28-3.36,5-9.86,9.06-9.86l169.1-.05c2.85,0,7.2,5.13,7.89,7.81.69,2.68-3.17,10.84-6.25,10.84Z"/>
  </g>
  <polygon class="cls-1" points="220.75 84.62 198.27 93.4 187.43 72.64 219.85 64.53 220.75 84.62"/>
</svg>