<?xml version="1.0" encoding="UTF-8"?>
<svg id="Layer_1" data-name="Layer 1" xmlns="http://www.w3.org/2000/svg" viewBox="0 0 500 500">
  <defs>
    <style>
      .cls-1 {
        fill: #164f78;
      }
    </style>
  </defs>
  <path class="cls-1" d="M361.1,401.06l-79.24-59.04c-6.86-5.11-12.01-11.77-18.23-17.5-16.81-15.48-35.31-29.5-54.51-41.97-6.5-4.22-15.07-2.26-19.75-13.61l-17.13,24.5-58.91-42.43,50.95-72.15,59.05,43.43-17.19,23.16c12.4.94,12.43,9.75,18.45,14.59,17.4,13.97,36.17,27.3,55.63,38.55,6.74,3.89,14.18,6.41,20.68,11.03l81.26,57.72c9.08,6.45,11.36,17.95,6.9,26.28-4.86,9.09-17.87,14.97-27.97,7.44Z"/>
  <path class="cls-1" d="M344.17,283.07c-72.2-37.74-82.95-78.19-77.68-157.08,29.27-3.01,55.78-8.89,77.45-30.49,22.18,20.51,48.21,28.46,78.55,30.13,3.76,78.85-4.77,119.56-78.32,157.44ZM344.23,265.81c56.26-32.57,65.93-64.71,62.8-125.66-24-2.9-43.65-11.21-63.21-23.69-19.29,13.56-38.96,20.94-62.47,23.57-2.71,62.58,6.64,91.52,62.88,125.78Z"/>
  <path class="cls-1" d="M215.57,404.34l-153.87-.05c-3.4-13.28,2.58-24.08,14.96-27.43-.58-9.54,4.16-17.75,14.13-17.75l93.09-.03c10.45,0,17.81,5.15,17.32,17.28,12.54,2.98,19.27,17.34,14.38,27.98Z"/>
  <path class="cls-1" d="M167.83,300.1c6.22,4.51,3.81,14.17,1.34,18.29-2.86,4.76-12.42,9.99-17.79,6.08l-61.94-45.14c-4.22-3.08-2.11-13.09.41-16.57,2.97-4.09,12.54-10.13,17.73-6.37l60.24,43.72Z"/>
  <path class="cls-1" d="M239.59,187.82c7.56,5.43,10.58,12.17,7.48,19.89-2.04,5.06-11.42,13.17-18.11,8.33l-62.04-44.95c-4.77-3.46-2.39-13.21.1-16.87,2.73-4.01,11.53-10.21,16.56-6.6l56.01,40.21Z"/>
  <path class="cls-1" d="M344.14,253.87c-45.31-27.54-54.92-53.99-52.05-105.16,19.61-3.58,35.95-9.53,51.91-19.94,16.05,9.64,32.71,16.33,52.44,19.95,4.1,47.56-8.73,80.26-52.31,105.14Z"/>
</svg>