<?xml version="1.0" encoding="UTF-8"?>
<svg id="Layer_1" data-name="Layer 1" xmlns="http://www.w3.org/2000/svg" viewBox="0 0 500 500">
  <defs>
    <style>
      .cls-1 {
        fill: #164f78;
      }
    </style>
  </defs>
  <path class="cls-1" d="M315.05,250.14c-12.04,2.73-17.6,13.24-27.28,11.7-3.07-.49-6.99-6.95-7.63-10.03l-3.19-15.54c-17.05-3.55-33.75-3.37-51.44-.17l-4.8,19.46c-.48,1.93-3.89,6.09-5.64,6.42-2.19.41-6.73-.5-8.68-1.62l-18.06-10.32-35.54,34.81,9.35,16.38c1.86,3.25,4.47,8.16,3.5,10.8s-7.27,5.66-10.1,6.28l-16.26,3.55-2.77,35.64-70.11.18-.22-24.01,20.06-.93,14.19-273.73,44.13-.41,11.65,147.03,82.11-54.82,1.63,55.63,83.9-55.67,1.71,55.65,83.92-55.85.94,182.06,21.04.97-.15,24.06-65.18.18-3.03-35.94-22.2-4.92c-3.43-.76-4.91-10.08-2.85-13.32l11.7-18.39-34.69-35.11Z"/>
  <path class="cls-1" d="M267.51,449.18l-32.8.02-4.75-21.71c-4.98-2.4-15.34-6.66-20.77-8.58l-19.01,11.49-23.09-22.46,11.96-19.02-8.07-20.74-21.41-3.91-.37-32.84,21.98-4.85c2.54-4.28,8.83-16.22,6.48-20.81l-9.99-19.48,21.82-22.33,20.62,12.01,19.33-8.18,5.5-22.32,32.25.31,5.37,21.55,18.71,8.12,21.38-11.47,21.9,22.42-11.49,19.33,6.92,20.4,22.59,5.52c.63,10.74.5,21.82-.27,32.54l-22.2,4.84-7.38,19.65,12.47,19.32-22.64,22.8-20.24-12.25-20.06,8.02-4.71,22.63ZM239.17,298.42c-29.11,6.95-43.75,36.21-36.81,61.81,7.24,26.74,33.82,42.08,60.03,36.17,27.4-6.18,44-33.78,37.29-60.88-6.4-25.86-31.65-43.99-60.51-37.09Z"/>
</svg>