<?xml version="1.0" encoding="UTF-8"?>
<svg id="Layer_1" data-name="Layer 1" xmlns="http://www.w3.org/2000/svg" viewBox="0 0 500 500">
  <defs>
    <style>
      .cls-1 {
        fill: #164f78;
      }
    </style>
  </defs>
  <path class="cls-1" d="M181.39,309.86c28.72,12.58,45.81,39.12,47.51,70.57l2.3,42.64-68.4-.13c-3.04-15.99-6.02-30.25-16.95-39.92-34.54-30.56-64.59-45.35-72.68-90.73l-16.46-92.38c-1.28-7.18,3.87-15.18,10.05-16.44,4.84-.99,14.74,1.92,17.19,8.18,7.53,19.22,14.78,39.95,20.9,59.86-7.3,9.61-15.33,23.47-5.99,34.69,14.15,17.01,29.09,34.35,46.69,49.5.16-22.3-53.96-49.66-38.5-70.78,3.05-4.17,14.7-5.78,19.29-1.65,20.81,18.72,32.2,36.58,55.06,46.59Z"/>
  <path class="cls-1" d="M316.46,311.29c32.48-15.69,32.11-27.14,58.59-48.15,4.84-3.84,15.13-2.2,18.63,2.24,4.15,5.26,3.8,13.48-1.72,19.83l-35.54,40.93c-.99,1.14-1.47,4.79-1.62,5.88s5.37.76,6.09-.04l38.86-43.26c10.52-11.71,7.07-26.37-5.65-34.89,7.34-22.48,14.13-42.4,22.76-63.75,2.13-5.27,12.93-7.66,17.5-6.4,6.82,1.88,10.2,10.14,8.84,17.98l-14.16,81.68c-9.97,57.54-35.69,64.45-76.48,101.39-10.14,9.18-12.29,22.83-14.88,38.23h-68.73s3.1-47.55,3.1-47.55c1.8-27.62,18.91-51.79,44.4-64.11Z"/>
  <path class="cls-1" d="M245.1,102.25l-.26,130.64c-27.37-17.01-54.03-20.6-85.5-21.57l-.18-134.33c22.48-.49,41.67,2.7,61.69,8.84,8.37,4.27,17.07,9.35,24.25,16.44Z"/>
  <path class="cls-1" d="M339.72,210.72c-36.99,3.41-52.54,2.78-85.75,22.11l.1-127.7c0-5.25,11.08-12.76,15.96-14.96,21.57-9.71,44.63-13.43,69.74-12.78l-.06,133.33Z"/>
  <path class="cls-1" d="M166.29,220.85c26.76.87,51.29,3.45,73,20.52-34.53-3.45-65.48-4.92-102.51.39l-.24-143.12c4.87-.56,9.54-.64,14.08-.26l.71,118.11c.61,3.24,10.56,4.88,14.95,4.35Z"/>
  <path class="cls-1" d="M259.49,242.16c21.66-18.83,53.76-21.38,88.71-22.12l.31-119.92c2.32-3.07,9.48-3.18,14.56-1.46l-.28,143.19c-36.72-5.4-66.74-4.24-103.29.31Z"/>
</svg>